<?xml version="1.0" encoding="utf-8"?>
<!-- Generator: Adobe Illustrator 13.0.0, SVG Export Plug-In . SVG Version: 6.00 Build 14948)  -->
<!DOCTYPE svg PUBLIC "-//W3C//DTD SVG 1.1//EN" "http://www.w3.org/Graphics/SVG/1.1/DTD/svg11.dtd">
<svg version="1.1" id="Layer_1" xmlns="http://www.w3.org/2000/svg" xmlns:xlink="http://www.w3.org/1999/xlink" x="0px" y="0px"
	 width="24px" height="28px" viewBox="0 0 24 28" enable-background="new 0 0 24 28" xml:space="preserve">
<path fill="#6C7079" d="M22.938,7.438C23.083,7.584,23.229,7.771,23.375,8H16V0.625c0.229,0.146,0.416,0.292,0.563,0.438
	L22.938,7.438z M15.5,10H24v16.5c0,0.416-0.146,0.771-0.438,1.063C23.27,27.854,22.916,28,22.5,28h-21
	c-0.417,0-0.771-0.146-1.062-0.438C0.146,27.27,0,26.916,0,26.5v-25c0-0.417,0.146-0.771,0.438-1.062S1.084,0,1.5,0H14v8.5
	c0,0.417,0.146,0.771,0.438,1.062C14.73,9.854,15.084,10,15.5,10z M18,21.5v-1c0-0.146-0.047-0.266-0.141-0.359
	C17.766,20.048,17.646,20,17.5,20h-11c-0.146,0-0.266,0.047-0.359,0.141S6,20.354,6,20.5v1c0,0.146,0.047,0.266,0.141,0.359
	C6.235,21.952,6.354,22,6.5,22h11c0.146,0,0.266-0.047,0.359-0.141C17.952,21.766,18,21.646,18,21.5z M18,17.5v-1
	c0-0.146-0.047-0.266-0.141-0.359C17.766,16.048,17.646,16,17.5,16h-11c-0.146,0-0.266,0.047-0.359,0.141S6,16.354,6,16.5v1
	c0,0.146,0.047,0.266,0.141,0.359C6.235,17.952,6.354,18,6.5,18h11c0.146,0,0.266-0.047,0.359-0.141
	C17.952,17.766,18,17.646,18,17.5z M18,13.5v-1c0-0.146-0.047-0.266-0.141-0.359S17.646,12,17.5,12h-11
	c-0.146,0-0.266,0.047-0.359,0.141C6.048,12.235,6,12.354,6,12.5v1c0,0.146,0.047,0.266,0.141,0.359C6.235,13.952,6.354,14,6.5,14
	h11c0.146,0,0.266-0.047,0.359-0.141C17.952,13.765,18,13.646,18,13.5z"/>
</svg>
